<svg width="25" height="25" viewBox="0 0 25 25" fill="none" xmlns="http://www.w3.org/2000/svg">
<path d="M21.875 4.6875H21.4172L23.4375 2.66719L22.3328 1.5625L1.5625 22.3328L2.66719 23.4375L5.79219 20.3125H21.875C22.2892 20.3119 22.6863 20.1471 22.9792 19.8542C23.2721 19.5613 23.4369 19.1642 23.4375 18.75V14.8438C23.4375 14.6365 23.3552 14.4378 23.2087 14.2913C23.0622 14.1448 22.8635 14.0625 22.6562 14.0625C22.2418 14.0625 21.8444 13.8979 21.5514 13.6049C21.2584 13.3118 21.0938 12.9144 21.0938 12.5C21.0938 12.0856 21.2584 11.6882 21.5514 11.3951C21.8444 11.1021 22.2418 10.9375 22.6562 10.9375C22.8635 10.9375 23.0622 10.8552 23.2087 10.7087C23.3552 10.5622 23.4375 10.3635 23.4375 10.1562V6.25C23.4371 5.83573 23.2723 5.43854 22.9794 5.1456C22.6865 4.85267 22.2893 4.68791 21.875 4.6875ZM21.875 9.47422C21.2042 9.64741 20.6099 10.0386 20.1857 10.5863C19.7614 11.134 19.5312 11.8072 19.5312 12.5C19.5312 13.1928 19.7614 13.866 20.1857 14.4137C20.6099 14.9614 21.2042 15.3526 21.875 15.5258V18.75H16.4062V16.4062H14.8438V18.75H7.35469L14.8438 11.2609V14.8438H16.4062V9.69844L19.8547 6.25H21.875V9.47422ZM3.125 9.47422V6.25H14.8438V4.6875H3.125C2.71073 4.68791 2.31354 4.85267 2.0206 5.1456C1.72767 5.43854 1.56291 5.83573 1.5625 6.25V10.1562C1.5625 10.3635 1.64481 10.5622 1.79132 10.7087C1.93784 10.8552 2.13655 10.9375 2.34375 10.9375C2.75815 10.9375 3.15558 11.1021 3.4486 11.3951C3.74163 11.6882 3.90625 12.0856 3.90625 12.5C3.90625 12.9144 3.74163 13.3118 3.4486 13.6049C3.15558 13.8979 2.75815 14.0625 2.34375 14.0625C2.13655 14.0625 1.93784 14.1448 1.79132 14.2913C1.64481 14.4378 1.5625 14.6365 1.5625 14.8438V18.75H3.125V15.5258C3.79616 15.3529 4.39079 14.9617 4.81535 14.4139C5.23991 13.8661 5.47031 13.1927 5.47031 12.4996C5.47031 11.8065 5.23991 11.1331 4.81535 10.5853C4.39079 10.0375 3.79616 9.64636 3.125 9.47344V9.47422Z" fill="#D72815"/>
</svg>
