<svg width="26" height="26" viewBox="0 0 26 26" fill="none" xmlns="http://www.w3.org/2000/svg">
<path d="M8.66613 2.4375C8.66613 2.22201 8.75173 2.01535 8.9041 1.86298C9.05647 1.7106 9.26314 1.625 9.47863 1.625H16.5198C16.7352 1.625 16.9419 1.7106 17.0943 1.86298C17.2466 2.01535 17.3323 2.22201 17.3323 2.4375C17.3323 2.65299 17.2466 2.85965 17.0943 3.01202C16.9419 3.1644 16.7352 3.25 16.5198 3.25H16.25V4.875H17.875C18.737 4.875 19.5636 5.21741 20.1731 5.8269C20.7826 6.4364 21.125 7.26305 21.125 8.125V19.5C21.125 20.362 20.7826 21.1886 20.1731 21.7981C19.5636 22.4076 18.737 22.75 17.875 22.75V23.5625C17.875 23.778 17.7894 23.9847 17.637 24.137C17.4847 24.2894 17.278 24.375 17.0625 24.375C16.847 24.375 16.6403 24.2894 16.488 24.137C16.3356 23.9847 16.25 23.778 16.25 23.5625V22.75H9.75V23.5625C9.75 23.778 9.6644 23.9847 9.51202 24.137C9.35965 24.2894 9.15299 24.375 8.9375 24.375C8.72201 24.375 8.51535 24.2894 8.36298 24.137C8.2106 23.9847 8.125 23.778 8.125 23.5625V22.75C7.26305 22.75 6.4364 22.4076 5.8269 21.7981C5.21741 21.1886 4.875 20.362 4.875 19.5V8.125C4.875 7.26305 5.21741 6.4364 5.8269 5.8269C6.4364 5.21741 7.26305 4.875 8.125 4.875H9.75V3.25H9.47863C9.26314 3.25 9.05647 3.1644 8.9041 3.01202C8.75173 2.85965 8.66613 2.65299 8.66613 2.4375ZM11.375 3.25V4.875H14.625V3.25H11.375ZM8.125 6.5C7.69402 6.5 7.2807 6.67121 6.97595 6.97595C6.67121 7.2807 6.5 7.69402 6.5 8.125V19.5C6.5 19.931 6.67121 20.3443 6.97595 20.649C7.2807 20.9538 7.69402 21.125 8.125 21.125H17.875C18.306 21.125 18.7193 20.9538 19.024 20.649C19.3288 20.3443 19.5 19.931 19.5 19.5V8.125C19.5 7.69402 19.3288 7.2807 19.024 6.97595C18.7193 6.67121 18.306 6.5 17.875 6.5H8.125ZM8.125 10.5625C8.125 10.347 8.2106 10.1403 8.36298 9.98798C8.51535 9.8356 8.72201 9.75 8.9375 9.75H17.0625C17.278 9.75 17.4847 9.8356 17.637 9.98798C17.7894 10.1403 17.875 10.347 17.875 10.5625C17.875 10.778 17.7894 10.9847 17.637 11.137C17.4847 11.2894 17.278 11.375 17.0625 11.375H8.9375C8.72201 11.375 8.51535 11.2894 8.36298 11.137C8.2106 10.9847 8.125 10.778 8.125 10.5625Z" fill="#575773"/>
</svg>
