<svg width="20" height="22" viewBox="0 0 20 22" fill="none" xmlns="http://www.w3.org/2000/svg">
<g clip-path="url(#clip0_284_2889)">
<path d="M8.61967 19.1882C8.61967 19.1882 7.42969 19.1882 7.42969 17.885C7.42969 16.5818 8.61967 12.6722 13.3796 12.6722C18.1395 12.6722 19.3295 16.5818 19.3295 17.885C19.3295 19.1882 18.1395 19.1882 18.1395 19.1882H8.61967ZM13.3796 11.369C14.3264 11.369 15.2344 10.9571 15.9039 10.2239C16.5734 9.49073 16.9495 8.4963 16.9495 7.45941C16.9495 6.42252 16.5734 5.4281 15.9039 4.6949C15.2344 3.96171 14.3264 3.5498 13.3796 3.5498C12.4328 3.5498 11.5247 3.96171 10.8553 4.6949C10.1858 5.4281 9.80965 6.42252 9.80965 7.45941C9.80965 8.4963 10.1858 9.49073 10.8553 10.2239C11.5247 10.9571 12.4328 11.369 13.3796 11.369Z" fill="#ECECF6"/>
<path fill-rule="evenodd" clip-rule="evenodd" d="M6.49697 19.1884C6.32056 18.7816 6.23258 18.3355 6.23993 17.8852C6.23993 16.1194 7.04912 14.3014 8.54373 13.0373C7.79773 12.7856 7.0205 12.6625 6.23993 12.6724C1.48002 12.6724 0.290039 16.582 0.290039 17.8852C0.290039 19.1884 1.48002 19.1884 1.48002 19.1884H6.49697Z" fill="#ECECF6"/>
<path d="M5.64487 11.369C6.43387 11.369 7.19056 11.0258 7.74848 10.4148C8.30639 9.80379 8.61982 8.97511 8.61982 8.11103C8.61982 7.24696 8.30639 6.41827 7.74848 5.80727C7.19056 5.19628 6.43387 4.85303 5.64487 4.85303C4.85586 4.85303 4.09917 5.19628 3.54126 5.80727C2.98335 6.41827 2.66992 7.24696 2.66992 8.11103C2.66992 8.97511 2.98335 9.80379 3.54126 10.4148C4.09917 11.0258 4.85586 11.369 5.64487 11.369Z" fill="#ECECF6"/>
</g>
<defs>
<clipPath id="clip0_284_2889">
<rect width="19.0397" height="20.8512" fill="white" transform="translate(0.290039 0.943359)"/>
</clipPath>
</defs>
</svg>
