<svg width="25" height="29" viewBox="0 0 25 29" fill="none" xmlns="http://www.w3.org/2000/svg">
<path d="M21.3278 6.38818H3.29017C3.0244 6.38818 2.76952 6.51023 2.58159 6.72747C2.39366 6.94471 2.28809 7.23936 2.28809 7.54659V12.1802H3.18295C4.18103 12.1802 5.10696 12.9691 5.26729 14.1078C5.31614 14.4403 5.30163 14.7811 5.22477 15.1065C5.14791 15.4318 5.01056 15.7338 4.82231 15.9915C4.63405 16.2492 4.39943 16.4562 4.1348 16.5983C3.87018 16.7403 3.58193 16.8138 3.29017 16.8138H2.28809V21.4474C2.28809 21.7546 2.39366 22.0493 2.58159 22.2665C2.76952 22.4838 3.0244 22.6058 3.29017 22.6058H21.3278C21.5935 22.6058 21.8484 22.4838 22.0363 22.2665C22.2243 22.0493 22.3298 21.7546 22.3298 21.4474V16.8138H21.3278C21.036 16.8138 20.7477 16.7403 20.4831 16.5983C20.2185 16.4562 19.9839 16.2492 19.7956 15.9915C19.6074 15.7338 19.47 15.4318 19.3932 15.1065C19.3163 14.7811 19.3018 14.4403 19.3506 14.1078C19.511 12.9691 20.4369 12.1802 21.435 12.1802H22.3298V7.54659C22.3298 7.23936 22.2243 6.94471 22.0363 6.72747C21.8484 6.51023 21.5935 6.38818 21.3278 6.38818ZM9.3027 11.0218C9.56847 11.0218 9.82335 11.1438 10.0113 11.3611C10.1992 11.5783 10.3048 11.873 10.3048 12.1802C10.3048 12.4874 10.1992 12.7821 10.0113 12.9993C9.82335 13.2165 9.56847 13.3386 9.3027 13.3386C9.03693 13.3386 8.78204 13.2165 8.59412 12.9993C8.40619 12.7821 8.30061 12.4874 8.30061 12.1802C8.30061 11.873 8.40619 11.5783 8.59412 11.3611C8.78204 11.1438 9.03693 11.0218 9.3027 11.0218ZM8.50103 18.4356L14.5136 9.16835L16.1169 10.5584L10.1044 19.8256L8.50103 18.4356ZM15.3152 17.9722C15.0495 17.9722 14.7946 17.8502 14.6066 17.6329C14.4187 17.4157 14.3131 17.121 14.3131 16.8138C14.3131 16.5066 14.4187 16.2119 14.6066 15.9947C14.7946 15.7774 15.0495 15.6554 15.3152 15.6554C15.581 15.6554 15.8359 15.7774 16.0238 15.9947C16.2117 16.2119 16.3173 16.5066 16.3173 16.8138C16.3173 17.121 16.2117 17.4157 16.0238 17.6329C15.8359 17.8502 15.581 17.9722 15.3152 17.9722Z" fill="#ECECF6"/>
</svg>
