<svg width="25" height="29" viewBox="0 0 25 29" fill="none" xmlns="http://www.w3.org/2000/svg">
<g clip-path="url(#clip0_284_2894)">
<path d="M6.83496 13.8828V21.2889H13.2416L11.9055 19.7443H8.17108V15.4273L6.83496 13.8828Z" fill="#ECECF6"/>
<path d="M24.1173 25.3738L22.2 23.1265V25.1499H3.49433V21.945H4.83045V20.7093H3.49433V15.5738H4.83045V14.3381H3.49433V9.39561H4.83045V8.15998H3.49433V3.843L14.1432 16.0834V13.9057L3.30059 1.43353C3.20715 1.32461 3.08777 1.25034 2.95767 1.22017C2.82756 1.18999 2.69264 1.20529 2.57008 1.26411C2.44753 1.32294 2.34291 1.42261 2.26956 1.55044C2.1962 1.67826 2.15744 1.82845 2.15821 1.98184V25.9221C2.15821 26.127 2.2286 26.3234 2.35388 26.4682C2.47917 26.613 2.64909 26.6944 2.82627 26.6944H23.643C23.7757 26.6953 23.9056 26.6505 24.0162 26.5657C24.1267 26.4809 24.213 26.36 24.2638 26.2183C24.3147 26.0766 24.328 25.9206 24.3019 25.7702C24.2758 25.6199 24.2115 25.4818 24.1173 25.3738Z" fill="#ECECF6"/>
<path d="M16.8556 23.6056H19.5279C19.8822 23.6056 20.2221 23.4429 20.4727 23.1532C20.7232 22.8636 20.864 22.4707 20.864 22.0611V7.1563L19.3275 3.8896C19.2086 3.65161 19.037 3.45457 18.8303 3.31882C18.6236 3.18306 18.3894 3.11351 18.1517 3.11734C17.9086 3.11957 17.6707 3.19841 17.4635 3.34538C17.2563 3.49235 17.0877 3.70187 16.9759 3.95139L15.5195 7.17174V22.0611C15.5195 22.4707 15.6603 22.8636 15.9109 23.1532C16.1614 23.4429 16.5013 23.6056 16.8556 23.6056ZM16.8556 7.54243L18.1517 4.63098L19.5279 7.55015V18.972H16.8556V7.54243ZM16.8556 20.2308H19.5279V22.1151H16.8556V20.2308Z" fill="#ECECF6"/>
</g>
<defs>
<clipPath id="clip0_284_2894">
<rect width="24.0501" height="27.8016" fill="white" transform="translate(0.822266 0.4375)"/>
</clipPath>
</defs>
</svg>
