<svg width="25" height="29" viewBox="0 0 25 29" fill="none" xmlns="http://www.w3.org/2000/svg">
<g clip-path="url(#clip0_284_2973)">
<path d="M10.3047 8.46546V10.7823H8.30048V8.46546H10.3047ZM16.3172 10.7823V8.46546H14.313V10.7823H16.3172ZM21.3276 13.0991V22.3663H3.29004V13.0991H4.29213V8.46546C4.29213 3.34532 7.8796 -0.801758 12.3088 -0.801758C16.7381 -0.801758 20.3255 3.34532 20.3255 8.46546V13.0991H21.3276ZM7.29839 15.4159H5.29421V20.0495H7.29839V15.4159ZM11.3067 15.4159H9.30257V20.0495H11.3067V15.4159ZM11.3067 1.60772C8.46081 2.16375 6.2963 5.025 6.2963 8.46546V13.0991H11.3067V1.60772ZM13.3109 13.0991H18.3214V8.46546C18.3214 5.025 16.1568 2.16375 13.3109 1.60772V13.0991ZM15.3151 15.4159H13.3109V20.0495H15.3151V15.4159ZM19.3234 15.4159H17.3193V20.0495H19.3234V15.4159Z" fill="#ECECF6"/>
</g>
<defs>
<clipPath id="clip0_284_2973">
<rect width="24.0501" height="27.8016" fill="white" transform="translate(0.28418 0.356445)"/>
</clipPath>
</defs>
</svg>
