<svg width="25" height="29" viewBox="0 0 25 29" fill="none" xmlns="http://www.w3.org/2000/svg">
<path d="M10.8388 12.0685V14.3853H8.83466V12.0685H10.8388ZM16.8514 14.3853V12.0685H14.8472V14.3853H16.8514ZM21.8618 16.7021V25.9693H3.82422V16.7021H4.82631V12.0685C4.82631 6.94835 8.41378 2.80127 12.843 2.80127C17.2722 2.80127 20.8597 6.94835 20.8597 12.0685V16.7021H21.8618ZM7.83257 19.0189H5.82839V23.6525H7.83257V19.0189ZM11.8409 19.0189H9.83675V23.6525H11.8409V19.0189ZM11.8409 5.21075C8.99499 5.76678 6.83048 8.62803 6.83048 12.0685V16.7021H11.8409V5.21075ZM13.8451 16.7021H18.8555V12.0685C18.8555 8.62803 16.691 5.76678 13.8451 5.21075V16.7021ZM15.8493 19.0189H13.8451V23.6525H15.8493V19.0189ZM19.8576 19.0189H17.8534V23.6525H19.8576V19.0189Z" fill="#ECECF6"/>
</svg>
