<svg width="29" height="33" viewBox="0 0 29 33" fill="none" xmlns="http://www.w3.org/2000/svg">
<path d="M25.3692 14.7202V10.9631C25.3692 8.73317 23.7909 6.90869 21.8619 6.90869H17.1855C16.2853 6.90869 15.4669 7.31413 14.8473 7.96284C14.2276 7.31413 13.4093 6.90869 12.5091 6.90869H7.83266C5.90364 6.90869 4.32535 8.73317 4.32535 10.9631V14.7202C3.6122 15.4635 3.15625 16.5311 3.15625 17.7204V24.4778C3.15625 25.2211 3.68235 25.8293 4.32535 25.8293C4.96836 25.8293 5.49445 25.2211 5.49445 24.4778V23.1263H24.2001V24.4778C24.2001 25.2211 24.7262 25.8293 25.3692 25.8293C26.0122 25.8293 26.5383 25.2211 26.5383 24.4778V17.7204C26.5383 16.5311 26.0823 15.4635 25.3692 14.7202ZM17.1855 9.61163H21.8619C22.5049 9.61163 23.031 10.2198 23.031 10.9631V13.666H16.0164V10.9631C16.0164 10.2198 16.5425 9.61163 17.1855 9.61163ZM6.66356 10.9631C6.66356 10.2198 7.18965 9.61163 7.83266 9.61163H12.5091C13.1521 9.61163 13.6782 10.2198 13.6782 10.9631V13.666H6.66356V10.9631ZM5.49445 20.4234V17.7204C5.49445 16.9771 6.02055 16.369 6.66356 16.369H23.031C23.674 16.369 24.2001 16.9771 24.2001 17.7204V20.4234H5.49445Z" fill="#ECECF6"/>
</svg>
