<svg width="25" height="29" viewBox="0 0 25 29" fill="none" xmlns="http://www.w3.org/2000/svg">
<path d="M12.309 17.598V25.7068M22.3298 4.97141V13.5436H2.28809V4.97141C2.28809 4.78707 2.35143 4.61029 2.46419 4.47994C2.57695 4.34959 2.72988 4.27637 2.88934 4.27637H21.7286C21.888 4.27637 22.041 4.34959 22.1537 4.47994C22.2665 4.61029 22.3298 4.78707 22.3298 4.97141V4.97141ZM18.3215 8.90997H19.3236H18.3215ZM2.28809 13.5436L3.07974 16.5369C3.20506 17.0114 3.45887 17.4269 3.80379 17.7222C4.14871 18.0175 4.56652 18.177 4.99573 18.1772H6.29644L2.28809 13.5436ZM22.3298 13.5436L21.5382 16.5369C21.4129 17.0114 21.1591 17.4269 20.8141 17.7222C20.4692 18.0175 20.0514 18.177 19.6222 18.1772H18.3215L22.3298 13.5436ZM9.80374 17.598C9.80374 17.598 9.80374 25.7068 6.29644 25.7068L9.80374 17.598ZM14.8142 17.598C14.8142 17.598 14.8142 25.7068 18.3215 25.7068L14.8142 17.598Z" stroke="#ECECF6" stroke-width="1.5" stroke-linecap="round" stroke-linejoin="round"/>
</svg>
