<svg width="25" height="29" viewBox="0 0 25 29" fill="none" xmlns="http://www.w3.org/2000/svg">
<g clip-path="url(#clip0_284_2967)">
<path d="M11.327 1.56161C12.0302 1.69535 12.6695 2.11353 13.1307 2.74157C13.5919 3.3696 13.8452 4.16664 13.8452 4.99048V7.30728H7.8327V4.99048C7.8327 3.7869 8.36181 2.7258 9.16548 2.10258C8.87686 1.80551 8.5201 1.61122 8.13816 1.54314C7.75623 1.47505 7.36541 1.53606 7.01277 1.71883C6.66014 1.90159 6.36074 2.19831 6.15063 2.57325C5.94052 2.94818 5.82866 3.38534 5.82853 3.83208V10.7825H21.8619C22.1277 10.7825 22.3826 10.9045 22.5705 11.1218C22.7584 11.339 22.864 11.6337 22.864 11.9409C22.864 12.2481 22.7584 12.5428 22.5705 12.76C22.3826 12.9772 22.1277 13.0993 21.8619 13.0993V14.2577C21.8621 15.6953 21.4767 17.0977 20.7589 18.2717C20.041 19.4457 19.026 20.3336 17.8536 20.8131V21.2081C17.8536 21.5153 17.748 21.81 17.5601 22.0272C17.3721 22.2445 17.1173 22.3665 16.8515 22.3665C16.5857 22.3665 16.3308 22.2445 16.1429 22.0272C15.955 21.81 15.8494 21.5153 15.8494 21.2081H9.83688C9.83688 21.5153 9.7313 21.81 9.54337 22.0272C9.35545 22.2445 9.10056 22.3665 8.83479 22.3665C8.56902 22.3665 8.31414 22.2445 8.12621 22.0272C7.93828 21.81 7.8327 21.5153 7.8327 21.2081V20.8131C6.66027 20.3336 5.64526 19.4457 4.92742 18.2717C4.20958 17.0977 3.8242 15.6953 3.82435 14.2577V13.0993C3.55858 13.0993 3.3037 12.9772 3.11577 12.76C2.92784 12.5428 2.82227 12.2481 2.82227 11.9409C2.82227 11.6337 2.92784 11.339 3.11577 11.1218C3.3037 10.9045 3.55858 10.7825 3.82435 10.7825V3.83208C3.82431 2.80746 4.11806 1.81171 4.65964 1.00061C5.20123 0.189504 5.96011 -0.391212 6.81758 -0.650701C7.67504 -0.910189 8.58273 -0.833815 9.39865 -0.433524C10.2146 -0.0332333 10.8927 0.668396 11.327 1.56161ZM19.8578 13.0993H5.82853V14.2577C5.82853 15.4866 6.25084 16.6652 7.00255 17.5341C7.75426 18.4031 8.7738 18.8913 9.83688 18.8913H15.8494C16.9125 18.8913 17.932 18.4031 18.6837 17.5341C19.4354 16.6652 19.8578 15.4866 19.8578 14.2577V13.0993ZM10.839 3.83208C10.5732 3.83208 10.3183 3.95412 10.1304 4.17137C9.94246 4.38861 9.83688 4.68325 9.83688 4.99048H11.8411C11.8411 4.68325 11.7355 4.38861 11.5476 4.17137C11.3596 3.95412 11.1047 3.83208 10.839 3.83208Z" fill="#ECECF6"/>
</g>
<defs>
<clipPath id="clip0_284_2967">
<rect width="24.0501" height="27.8016" fill="white" transform="translate(0.818359 0.356445)"/>
</clipPath>
</defs>
</svg>
