<svg width="19" height="18" viewBox="0 0 19 18" fill="none" xmlns="http://www.w3.org/2000/svg">
<path d="M8.3125 15.75C8.3125 15.75 7.125 15.75 7.125 14.625C7.125 13.5 8.3125 10.125 13.0625 10.125C17.8125 10.125 19 13.5 19 14.625C19 15.75 17.8125 15.75 17.8125 15.75H8.3125ZM13.0625 9C14.0073 9 14.9135 8.64442 15.5816 8.01149C16.2497 7.37855 16.625 6.52011 16.625 5.625C16.625 4.72989 16.2497 3.87145 15.5816 3.23851C14.9135 2.60558 14.0073 2.25 13.0625 2.25C12.1177 2.25 11.2115 2.60558 10.5434 3.23851C9.87533 3.87145 9.5 4.72989 9.5 5.625C9.5 6.52011 9.87533 7.37855 10.5434 8.01149C11.2115 8.64442 12.1177 9 13.0625 9Z" fill="#575773"/>
<path fill-rule="evenodd" clip-rule="evenodd" d="M6.194 15.75C6.01796 15.3988 5.93017 15.0137 5.9375 14.625C5.9375 13.1006 6.745 11.5312 8.2365 10.44C7.49205 10.2227 6.71644 10.1164 5.9375 10.125C1.1875 10.125 0 13.5 0 14.625C0 15.75 1.1875 15.75 1.1875 15.75H6.194Z" fill="#575773"/>
<path d="M5.34375 9C6.13111 9 6.88622 8.70368 7.44297 8.17624C7.99972 7.64879 8.3125 6.93342 8.3125 6.1875C8.3125 5.44158 7.99972 4.72621 7.44297 4.19876C6.88622 3.67132 6.13111 3.375 5.34375 3.375C4.55639 3.375 3.80128 3.67132 3.24453 4.19876C2.68778 4.72621 2.375 5.44158 2.375 6.1875C2.375 6.93342 2.68778 7.64879 3.24453 8.17624C3.80128 8.70368 4.55639 9 5.34375 9Z" fill="#575773"/>
</svg>
