<svg width="24" height="24" viewBox="0 0 24 24" fill="none" xmlns="http://www.w3.org/2000/svg">
<path d="M6 11.6064V17.9998H12.3933L11.06 16.6664H7.33333V12.9398L6 11.6064Z" fill="#575773"/>
<path d="M23.2464 21.5265L21.333 19.5865V21.3331H2.66635V18.5665H3.99969V17.4998H2.66635V13.0665H3.99969V11.9998H2.66635V7.73314H3.99969V6.66647H2.66635V2.93981L13.293 13.5065V11.6265L2.47302 0.859808C2.37977 0.765789 2.26064 0.701668 2.13081 0.675622C2.00097 0.649575 1.86633 0.662783 1.74403 0.713561C1.62174 0.764339 1.51733 0.850386 1.44413 0.960733C1.37093 1.07108 1.33225 1.20073 1.33302 1.33314V21.9998C1.33302 22.1766 1.40326 22.3462 1.52828 22.4712C1.65331 22.5962 1.82287 22.6665 1.99969 22.6665H22.773C22.9054 22.6672 23.0351 22.6286 23.1454 22.5554C23.2558 22.4822 23.3418 22.3778 23.3926 22.2555C23.4434 22.1332 23.4566 21.9985 23.4305 21.8687C23.4045 21.7389 23.3404 21.6197 23.2464 21.5265Z" fill="#575773"/>
<path d="M16.0003 19.9998H18.667C19.0206 19.9998 19.3598 19.8593 19.6098 19.6093C19.8598 19.3592 20.0003 19.0201 20.0003 18.6665V5.79978L18.467 2.97978C18.3484 2.77433 18.1772 2.60424 17.9709 2.48705C17.7646 2.36986 17.5309 2.30982 17.2937 2.31312C17.0511 2.31504 16.8136 2.38311 16.6069 2.50998C16.4001 2.63685 16.2319 2.81772 16.1203 3.03312L14.667 5.81312V18.6665C14.667 19.0201 14.8075 19.3592 15.0575 19.6093C15.3076 19.8593 15.6467 19.9998 16.0003 19.9998ZM16.0003 6.13312L17.2937 3.61978L18.667 6.13978V15.9998H16.0003V6.13312ZM16.0003 17.0865H18.667V18.7131H16.0003V17.0865Z" fill="#575773"/>
</svg>
