<svg width="24" height="24" viewBox="0 0 24 24" fill="none" xmlns="http://www.w3.org/2000/svg">
<path d="M10.3185 13.5H6V16.5H7.3185L5.8185 18H5.25C5.05109 18 4.86032 17.921 4.71967 17.7803C4.57902 17.6397 4.5 17.4489 4.5 17.25V12.75C4.5 12.5511 4.57902 12.3603 4.71967 12.2197C4.86032 12.079 5.05109 12 5.25 12H11.8185L10.3185 13.5ZM13.6815 16.5H16.5V13.6815L18.1815 12H21.75C21.9489 12 22.1397 12.079 22.2803 12.2197C22.421 12.3603 22.5 12.5511 22.5 12.75V17.25C22.5 17.4489 22.421 17.6397 22.2803 17.7803C22.1397 17.921 21.9489 18 21.75 18H12.1815L13.6815 16.5ZM18 13.5V16.5H21V13.5H18ZM17.304 8.6355L18.3645 9.696L6.696 21.3645L5.6355 20.304L17.304 8.6355ZM6 1.5H7.5V9H6V1.5ZM3 4.5H4.5V9H3V4.5ZM1.5 12H3V18H1.5V12Z" fill="#575773"/>
</svg>
