<svg width="24" height="24" viewBox="0 0 24 24" fill="none" xmlns="http://www.w3.org/2000/svg">
<path d="M17.25 3C18.2446 3 19.1984 3.39509 19.9016 4.09835C20.6049 4.80161 21 5.75544 21 6.75V9.3855C19.5234 8.16404 17.6663 7.49708 15.75 7.5H19.5V6.75C19.5 6.15326 19.2629 5.58097 18.841 5.15901C18.419 4.73705 17.8467 4.5 17.25 4.5H6.75C6.15326 4.5 5.58097 4.73705 5.15901 5.15901C4.73705 5.58097 4.5 6.15326 4.5 6.75V7.5H15.75C13.9845 7.5 12.348 8.055 11.0055 9H4.5V17.25C4.5 17.8467 4.73705 18.419 5.15901 18.841C5.58097 19.2629 6.15326 19.5 6.75 19.5H8.4C8.6745 20.037 9.006 20.5395 9.3855 21H6.75C5.75544 21 4.80161 20.6049 4.09835 19.9016C3.39509 19.1984 3 18.2446 3 17.25V6.75C3 5.75544 3.39509 4.80161 4.09835 4.09835C4.80161 3.39509 5.75544 3 6.75 3H17.25ZM22.5 15.75C22.5 16.6364 22.3254 17.5142 21.9862 18.3331C21.647 19.1521 21.1498 19.8962 20.523 20.523C19.8962 21.1498 19.1521 21.647 18.3331 21.9862C17.5142 22.3254 16.6364 22.5 15.75 22.5C14.8636 22.5 13.9858 22.3254 13.1669 21.9862C12.3479 21.647 11.6038 21.1498 10.977 20.523C10.3502 19.8962 9.85303 19.1521 9.51381 18.3331C9.17459 17.5142 9 16.6364 9 15.75C9 13.9598 9.71116 12.2429 10.977 10.977C12.2429 9.71116 13.9598 9 15.75 9C17.5402 9 19.2571 9.71116 20.523 10.977C21.7888 12.2429 22.5 13.9598 22.5 15.75ZM18.531 14.031C18.6007 13.9613 18.656 13.8785 18.6938 13.7874C18.7315 13.6963 18.7509 13.5986 18.7509 13.5C18.7509 13.4014 18.7315 13.3037 18.6938 13.2126C18.656 13.1215 18.6007 13.0387 18.531 12.969C18.4613 12.8993 18.3785 12.844 18.2874 12.8062C18.1963 12.7685 18.0986 12.7491 18 12.7491C17.9014 12.7491 17.8037 12.7685 17.7126 12.8062C17.6215 12.844 17.5387 12.8993 17.469 12.969L15.75 14.6895L14.031 12.969C13.8902 12.8282 13.6992 12.7491 13.5 12.7491C13.3008 12.7491 13.1098 12.8282 12.969 12.969C12.8282 13.1098 12.7491 13.3008 12.7491 13.5C12.7491 13.6992 12.8282 13.8902 12.969 14.031L14.6895 15.75L12.969 17.469C12.8282 17.6098 12.7491 17.8008 12.7491 18C12.7491 18.1992 12.8282 18.3902 12.969 18.531C13.1098 18.6718 13.3008 18.7509 13.5 18.7509C13.6992 18.7509 13.8902 18.6718 14.031 18.531L15.75 16.8105L17.469 18.531C17.6098 18.6718 17.8008 18.7509 18 18.7509C18.1992 18.7509 18.3902 18.6718 18.531 18.531C18.6718 18.3902 18.7509 18.1992 18.7509 18C18.7509 17.8008 18.6718 17.6098 18.531 17.469L16.8105 15.75L18.531 14.031Z" fill="#575773"/>
</svg>
