<svg width="28" height="28" viewBox="0 0 28 28" fill="none" xmlns="http://www.w3.org/2000/svg">
<path d="M24.4997 12.5768V9.3335C24.4997 7.4085 22.9247 5.8335 20.9997 5.8335H16.333C15.4347 5.8335 14.618 6.1835 13.9997 6.7435C13.3813 6.1835 12.5647 5.8335 11.6663 5.8335H6.99967C5.07467 5.8335 3.49967 7.4085 3.49967 9.3335V12.5768C2.78801 13.2185 2.33301 14.1402 2.33301 15.1668V21.0002C2.33301 21.6418 2.85801 22.1668 3.49967 22.1668C4.14134 22.1668 4.66634 21.6418 4.66634 21.0002V19.8335H23.333V21.0002C23.333 21.6418 23.858 22.1668 24.4997 22.1668C25.1413 22.1668 25.6663 21.6418 25.6663 21.0002V15.1668C25.6663 14.1402 25.2113 13.2185 24.4997 12.5768ZM16.333 8.16683H20.9997C21.6413 8.16683 22.1663 8.69183 22.1663 9.3335V11.6668H15.1663V9.3335C15.1663 8.69183 15.6913 8.16683 16.333 8.16683ZM5.83301 9.3335C5.83301 8.69183 6.35801 8.16683 6.99967 8.16683H11.6663C12.308 8.16683 12.833 8.69183 12.833 9.3335V11.6668H5.83301V9.3335ZM4.66634 17.5002V15.1668C4.66634 14.5252 5.19134 14.0002 5.83301 14.0002H22.1663C22.808 14.0002 23.333 14.5252 23.333 15.1668V17.5002H4.66634Z" fill="#575773"/>
</svg>
