<svg width="24" height="24" viewBox="0 0 24 24" fill="none" xmlns="http://www.w3.org/2000/svg">
<path d="M11.9996 18.9922C11.7343 18.9922 11.48 18.8869 11.2925 18.6993C11.1049 18.5118 10.9996 18.2575 10.9996 17.9922C10.9996 17.727 11.1049 17.4727 11.2925 17.2851C11.48 17.0976 11.7343 16.9922 11.9996 16.9922C12.2648 16.9922 12.5191 17.0976 12.7067 17.2851C12.8942 17.4727 12.9996 17.727 12.9996 17.9922C12.9996 18.2575 12.8942 18.5118 12.7067 18.6993C12.5191 18.8869 12.2648 18.9922 11.9996 18.9922ZM9.89356 16.4402C9.77022 16.669 9.56268 16.8407 9.31491 16.9191C9.06714 16.9974 8.7986 16.9762 8.56617 16.86C8.33374 16.7438 8.15567 16.5417 8.0697 16.2965C7.98372 16.0512 7.99658 15.7822 8.10556 15.5462C8.4675 14.8235 9.02345 14.2157 9.71117 13.791C10.3989 13.3663 11.1913 13.1413 11.9996 13.1413C12.8079 13.1413 13.6002 13.3663 14.288 13.791C14.9757 14.2157 15.5316 14.8235 15.8936 15.5462C15.9571 15.6641 15.9964 15.7936 16.009 15.9269C16.0215 16.0602 16.0072 16.1947 15.9668 16.3224C15.9265 16.4501 15.8608 16.5684 15.7739 16.6702C15.6869 16.7721 15.5804 16.8554 15.4606 16.9153C15.3408 16.9752 15.2102 17.0104 15.0766 17.0189C14.9429 17.0273 14.8089 17.0089 14.6825 16.9646C14.5562 16.9203 14.44 16.851 14.3408 16.7609C14.2417 16.6709 14.1617 16.5618 14.1056 16.4402C13.9104 16.0487 13.61 15.7192 13.238 15.489C12.8659 15.2587 12.4371 15.1367 11.9996 15.1367C11.562 15.1367 11.1332 15.2587 10.7612 15.489C10.3892 15.7192 10.0887 16.0487 9.89356 16.4402ZM6.79956 13.5952C6.72077 13.7003 6.62205 13.7888 6.50905 13.8557C6.39606 13.9226 6.27098 13.9666 6.14098 13.9852C5.87843 14.0227 5.61173 13.9544 5.39956 13.7952C5.18739 13.6361 5.04712 13.3992 5.00961 13.1367C4.99104 13.0067 4.99826 12.8743 5.03085 12.7471C5.06344 12.6198 5.12077 12.5003 5.19956 12.3952C5.99168 11.3401 7.01847 10.4838 8.19869 9.89403C9.37891 9.30427 10.6802 8.99724 11.9996 8.99724C13.3189 8.99724 14.6202 9.30427 15.8004 9.89403C16.9807 10.4838 18.0074 11.3401 18.7996 12.3952C18.8784 12.5003 18.9357 12.6198 18.9683 12.7471C19.0009 12.8743 19.0081 13.0067 18.9895 13.1367C18.9709 13.2667 18.9269 13.3917 18.86 13.5047C18.7931 13.6177 18.7046 13.7164 18.5996 13.7952C18.4945 13.874 18.375 13.9314 18.2477 13.964C18.1205 13.9965 17.9881 14.0038 17.8581 13.9852C17.7281 13.9666 17.6031 13.9226 17.4901 13.8557C17.3771 13.7888 17.2784 13.7003 17.1996 13.5952C16.5937 12.7885 15.8085 12.1338 14.906 11.6829C14.0035 11.232 13.0084 10.9972 11.9996 10.9972C10.9907 10.9972 9.99563 11.232 9.09312 11.6829C8.19061 12.1338 7.40539 12.7885 6.79956 13.5952ZM3.74256 10.6652C3.56223 10.8498 3.31755 10.9575 3.05966 10.9658C2.80177 10.9742 2.55064 10.8825 2.35877 10.71C2.16689 10.5375 2.04912 10.2975 2.03007 10.0402C2.01103 9.78284 2.09218 9.52812 2.25656 9.32924C7.09956 3.95224 15.3866 3.51624 20.7686 8.35624C21.1106 8.66324 21.4356 8.98824 21.7426 9.32924C21.8304 9.42681 21.8982 9.54074 21.942 9.6645C21.9858 9.78827 22.0049 9.91945 21.998 10.0506C21.9911 10.1817 21.9585 10.3102 21.902 10.4287C21.8454 10.5472 21.7661 10.6534 21.6686 10.7412C21.571 10.8291 21.4571 10.8969 21.3333 10.9407C21.2095 10.9845 21.0784 11.0035 20.9472 10.9967C20.8161 10.9898 20.6876 10.9572 20.5691 10.9007C20.4506 10.8441 20.3444 10.7648 20.2566 10.6672C19.9962 10.3774 19.7204 10.1016 19.4306 9.84124C14.8706 5.74024 7.84656 6.10824 3.74256 10.6662V10.6652Z" fill="#575773"/>
</svg>
