<svg width="28" height="28" viewBox="0 0 28 28" fill="none" xmlns="http://www.w3.org/2000/svg">
<circle cx="14" cy="14" r="14" fill="#68D1A2"/>
<path d="M13.9995 21.5C13.5995 21.5 13.2558 21.3562 12.9683 21.0687C12.6808 20.7812 12.537 20.4375 12.537 20.0375V18.5H8.6558C8.3558 18.5 8.1308 18.3687 7.9808 18.1062C7.8308 17.8437 7.8433 17.5875 8.0183 17.3375L10.2495 14H10.1933C9.8933 14 9.6713 13.8655 9.5273 13.5965C9.3838 13.328 9.39955 13.0687 9.57455 12.8187L13.3808 7.38125C13.4558 7.28125 13.5495 7.203 13.662 7.1465C13.7745 7.0905 13.887 7.0625 13.9995 7.0625C14.112 7.0625 14.2245 7.0905 14.337 7.1465C14.4495 7.203 14.5433 7.28125 14.6183 7.38125L18.4245 12.8187C18.5995 13.0687 18.615 13.328 18.471 13.5965C18.3275 13.8655 18.1058 14 17.8058 14H17.7495L19.9808 17.3375C20.1558 17.5875 20.1683 17.8437 20.0183 18.1062C19.8683 18.3687 19.6433 18.5 19.3433 18.5H15.462V20.0375C15.462 20.4375 15.3183 20.7812 15.0308 21.0687C14.7433 21.3562 14.3995 21.5 13.9995 21.5ZM10.062 17H13.062H11.637H16.362H14.937H17.937H10.062ZM10.062 17H17.937L14.937 12.5H16.362L13.9995 9.125L11.637 12.5H13.062L10.062 17Z" fill="#F9FAFF"/>
</svg>
