<svg width="28" height="28" viewBox="0 0 28 28" fill="none" xmlns="http://www.w3.org/2000/svg">
<circle cx="14" cy="14" r="14" fill="#2D9CDB"/>
<path fill-rule="evenodd" clip-rule="evenodd" d="M14.625 13.0625L18.375 14.625V13.375L14.625 11.5V9.625C14.625 9.45924 14.5592 9.30027 14.4419 9.18306C14.3247 9.06585 14.1658 9 14 9C13.8342 9 13.6753 9.06585 13.5581 9.18306C13.4408 9.30027 13.375 9.45924 13.375 9.625V11.5L9.625 13.375V14.625L13.375 13.0625V16.5L11.5 17.75V18.375L14 17.75L16.5 18.375V17.75L14.625 16.5V13.0625Z" fill="#F9FAFF"/>
<path d="M14 22.75C12.2694 22.75 10.5777 22.2368 9.13876 21.2754C7.69983 20.3139 6.57832 18.9473 5.91606 17.3485C5.25379 15.7496 5.08051 13.9903 5.41813 12.293C5.75575 10.5956 6.58911 9.03653 7.81282 7.81282C9.03653 6.58911 10.5956 5.75575 12.293 5.41813C13.9903 5.08051 15.7496 5.25379 17.3485 5.91606C18.9473 6.57832 20.3139 7.69983 21.2754 9.13876C22.2368 10.5777 22.75 12.2694 22.75 14C22.7474 16.3198 21.8246 18.5439 20.1843 20.1843C18.5439 21.8246 16.3198 22.7474 14 22.75ZM14 6.5C12.5166 6.5 11.0666 6.93987 9.83323 7.76398C8.59986 8.58809 7.63856 9.75943 7.07091 11.1299C6.50325 12.5003 6.35473 14.0083 6.64411 15.4632C6.9335 16.918 7.64781 18.2544 8.6967 19.3033C9.7456 20.3522 11.082 21.0665 12.5368 21.3559C13.9917 21.6453 15.4997 21.4968 16.8701 20.9291C18.2406 20.3614 19.4119 19.4001 20.236 18.1668C21.0601 16.9334 21.5 15.4834 21.5 14C21.4977 12.0116 20.7068 10.1053 19.3007 8.69926C17.8947 7.29324 15.9884 6.50232 14 6.5Z" fill="#F9FAFF"/>
</svg>
