<svg width="28" height="28" viewBox="0 0 28 28" fill="none" xmlns="http://www.w3.org/2000/svg">
<circle cx="14" cy="14" r="14" fill="#F2994A"/>
<path d="M20.753 10.9812V9.5C20.753 7.8455 19.4075 6.5 17.753 6.5H10.253C8.5985 6.5 7.253 7.8455 7.253 9.5V10.9985L7.196 11.0015C7.00685 11.0152 6.8299 11.1 6.70076 11.2388C6.57162 11.3777 6.49989 11.5604 6.5 11.75V13.25C6.5 13.4489 6.57902 13.6397 6.71967 13.7803C6.86032 13.921 7.05109 14 7.25 14H7.253V18.5C7.253 19.0512 7.55525 19.529 8 19.79V20.75C8 20.9489 8.07902 21.1397 8.21967 21.2803C8.36032 21.421 8.55109 21.5 8.75 21.5H9.5C9.69891 21.5 9.88968 21.421 10.0303 21.2803C10.171 21.1397 10.25 20.9489 10.25 20.75V20H17.75V20.75C17.75 20.9489 17.829 21.1397 17.9697 21.2803C18.1103 21.421 18.3011 21.5 18.5 21.5H19.25C19.4489 21.5 19.6397 21.421 19.7803 21.2803C19.921 21.1397 20 20.9489 20 20.75V19.793C20.228 19.6626 20.4176 19.4744 20.5498 19.2474C20.682 19.0205 20.7521 18.7627 20.753 18.5V14C20.9519 14 21.1427 13.921 21.2833 13.7803C21.424 13.6397 21.503 13.4489 21.503 13.25V11.7965C21.5116 11.6801 21.4932 11.5633 21.449 11.4552C21.2967 11.09 20.9727 11.0022 20.753 10.9812ZM19.2545 18.5H8.753V14.75H19.2537L19.2545 18.5ZM13.253 10.25V13.25H8.753V10.25H13.253ZM19.253 10.25V13.25H14.753V10.25H19.253ZM10.253 8H17.753C18.305 8 18.7843 8.30375 19.0445 8.75H8.9615C9.22175 8.30375 9.701 8 10.253 8Z" fill="#F9FAFF"/>
<path d="M10.625 17.75C11.2463 17.75 11.75 17.2463 11.75 16.625C11.75 16.0037 11.2463 15.5 10.625 15.5C10.0037 15.5 9.5 16.0037 9.5 16.625C9.5 17.2463 10.0037 17.75 10.625 17.75Z" fill="#F9FAFF"/>
<path d="M17.375 17.75C17.9963 17.75 18.5 17.2463 18.5 16.625C18.5 16.0037 17.9963 15.5 17.375 15.5C16.7537 15.5 16.25 16.0037 16.25 16.625C16.25 17.2463 16.7537 17.75 17.375 17.75Z" fill="#F9FAFF"/>
</svg>
